PathFileType	4	(X/Y/Z)	D:\telocate\uwb01-Unnamed.trc
DataRate	CameraRate	NumFrames	NumMarkers	Units	OrigDataRate	OrigDataStartFrame	OrigNumFrames
100.00	100.00	      127	0	mm	100.00	6593	      7534
Frame#	Time	
		

6593	65.920	2682.54175	-2046.31274	1197.47522	
6594	65.930	2681.96899	-2046.15747	1197.48193	
6595	65.940	2681.37646	-2046.10803	1197.79700	
6596	65.950	2680.76855	-2045.91431	1197.60791	
6597	65.960	2680.47119	-2045.45313	1198.01709	
6598	65.970	2680.30249	-2045.19116	1198.29504	
6599	65.980	2680.23120	-2044.55969	1198.47583	
6600	65.990	2680.01343	-2043.69763	1199.05017	
6601	66.000	2679.71729	-2042.98816	1199.16870	
6602	66.010	2679.67603	-2042.49084	1199.48975	
6603	66.020	2679.15381	-2041.82690	1199.60706	
6604	66.030	2678.65161	-2041.32361	1199.68372	
6605	66.040	2677.35376	-2040.79016	1199.58691	
6606	66.050	2675.86914	-2040.43787	1199.54260	
6607	66.060	2674.13013	-2040.19592	1199.43250	
6608	66.070	2672.65454	-2039.79260	1199.60852	
6609	66.080	2670.99146	-2039.68787	1199.86206	
6610	66.090	2669.61157	-2039.47241	1199.95813	
6611	66.100	2668.07837	-2039.43701	1199.65063	
6612	66.110	2668.44971	-2038.75525	1199.75952	
6613	66.120	2666.62695	-2038.75757	1199.60596	
6614	66.130	2662.88086	-2039.15332	1199.42871	
6615	66.140	2661.35205	-2039.36035	1199.61072	
6616	66.150	2659.95825	-2039.47095	1199.86755	
6617	66.160	2660.71436	-2039.04138	1199.44641	
6618	66.170	2659.14722	-2039.32947	1199.23438	
6619	66.180	2654.98267	-2040.03650	1199.11230	
6620	66.190	2652.74243	-2039.70215	1199.46680	
6621	66.200	2651.22485	-2040.34448	1198.97583	
6622	66.210	2650.61548	-2041.49072	1198.77002	
6623	66.220	2649.09790	-2041.45093	1198.80676	
6624	66.230	2647.35840	-2041.79956	1198.22351	
6625	66.240	2645.14307	-2041.78796	1197.86511	
6626	66.250	2643.57349	-2041.75464	1197.76990	
6627	66.260	2642.53491	-2041.86389	1197.68530	
6628	66.270	2641.12817	-2041.96191	1197.69653	
6629	66.280	2640.13428	-2041.86145	1197.59363	
6630	66.290	2639.02441	-2041.88269	1197.40674	
6631	66.300	2638.15771	-2041.63977	1197.28564	
6632	66.310	2637.62378	-2041.61133	1196.97437	
6633	66.320	2636.83667	-2041.56873	1197.29102	
6634	66.330	2636.04053	-2041.33118	1197.60828	
6635	66.340	2635.32959	-2041.21814	1197.64160	
6636	66.350	2634.51074	-2041.50916	1197.50769	
6637	66.360	2633.65527	-2041.33582	1197.30042	
6638	66.370	2632.86719	-2041.24109	1197.40869	
6639	66.380	2631.88843	-2040.90393	1197.78394	
6640	66.390	2630.87183	-2041.13049	1197.89465	
6641	66.400	2630.10376	-2041.52429	1198.22302	
6642	66.410	2629.19238	-2041.81006	1198.22058	
6643	66.420	2628.11914	-2041.87598	1198.72498	
6644	66.430	2626.87988	-2042.44739	1198.99695	
6645	66.440	2626.20532	-2042.75574	1199.13232	
6646	66.450	2625.75049	-2042.97095	1199.79602	
6647	66.460	2624.70850	-2043.64392	1200.18079	
6648	66.470	2624.27783	-2044.22559	1200.49060	
6649	66.480	2624.09644	-2044.84985	1200.84131	
6650	66.490	2623.31763	-2045.78296	1200.92334	
6651	66.500	2622.48462	-2046.91541	1201.24207	
6652	66.510	2619.57324	-2048.17090	1201.34399	
6653	66.520	2617.41382	-2049.55249	1200.72461	
6654	66.530	2616.30200	-2050.48242	1201.06653	
6655	66.540	2614.78296	-2051.65088	1201.16455	
6656	66.550	2613.44043	-2052.96411	1201.27661	
6657	66.560	2610.82227	-2053.37231	1201.52625	
6658	66.570	2609.17700	-2054.98218	1202.01318	
6659	66.580	2606.92334	-2056.30200	1201.82837	
6660	66.590	2603.95166	-2057.65161	1201.85278	
6661	66.600	2601.81494	-2058.68408	1201.21899	
6662	66.610	2601.63037	-2060.18018	1201.68506	
6663	66.620	2598.80493	-2062.05469	1201.74902	
6664	66.630	2596.08862	-2064.02881	1200.98682	
6665	66.640	2590.56299	-2066.22437	1200.67468	
6666	66.650	2589.88159	-2067.63281	1200.99097	
6667	66.660	2585.20703	-2069.81030	1200.12646	
6668	66.670	2581.64038	-2071.76440	1199.61475	
6669	66.680	2579.43970	-2073.55859	1199.89880	
6670	66.690	2577.25098	-2075.64893	1199.47778	
6671	66.700	2575.31665	-2077.23071	1199.26013	
6672	66.710	2573.19189	-2079.50000	1199.46985	
6673	66.720	2571.85254	-2081.80664	1200.00940	
6674	66.730	2568.21948	-2084.27026	1199.78552	
6675	66.740	2564.55981	-2086.66382	1200.15417	
6676	66.750	2557.99805	-2089.04297	1200.21887	
6677	66.760	2556.61426	-2090.50391	1199.85974	
6678	66.770	2555.09424	-2092.87549	1200.12988	
6679	66.780	2554.39209	-2096.53516	1198.55225	
6680	66.790	2552.26709	-2098.46240	1198.90186	
6681	66.800	2549.17847	-2100.00464	1199.45850	
6682	66.810	2548.39380	-2102.61743	1199.31140	
6683	66.820	2546.93213	-2104.74390	1199.28333	
6684	66.830	2546.92676	-2106.30640	1199.16418	
6685	66.840	2541.07617	-2108.05542	1199.38062	
6686	66.850	2541.00366	-2110.79224	1198.78528	
6687	66.860	2542.06299	-2111.37622	1198.82568	
6688	66.870	2539.50928	-2112.47974	1199.33691	
6689	66.880	2534.70215	-2114.26538	1200.26282	
6690	66.890	2535.41187	-2116.13135	1199.88367	
6691	66.900	2534.49609	-2116.91357	1200.04578	
6692	66.910	2533.27905	-2118.27295	1199.92261	
6693	66.920	2532.65723	-2119.23560	1200.47974	
6694	66.930	2530.53223	-2119.89966	1201.38318	
6695	66.940	2531.19116	-2121.48389	1201.10840	
6696	66.950	2530.62061	-2122.35156	1201.19336	
6697	66.960	2529.63306	-2123.61182	1201.60535	
6698	66.970	2528.20410	-2125.16162	1201.34802	
6699	66.980	2529.90601	-2125.47681	1201.58472	
6700	66.990	2526.98926	-2127.30737	1201.81567	
6701	67.000	2526.17334	-2128.19702	1202.05054	
6702	67.010	2525.61279	-2129.66772	1202.28113	
6703	67.020	2525.09741	-2130.62744	1202.51770	
6704	67.030	2524.56860	-2131.94238	1202.61987	
6705	67.040	2523.52930	-2133.24927	1203.18286	
6706	67.050	2522.78687	-2134.39771	1203.12158	
6707	67.060	2522.19678	-2135.50732	1202.99731	
6708	67.070	2521.13867	-2136.61255	1203.12512	
6709	67.080	2520.35596	-2137.54321	1202.90222	
6710	67.090	2519.39966	-2139.36475	1202.67981	
6711	67.100	2518.33813	-2140.11816	1202.57996	
6712	67.110	2516.91260	-2141.51367	1202.51428	
6713	67.120	2514.18848	-2142.67944	1202.04504	
6714	67.130	2512.95166	-2143.78076	1201.98926	
6715	67.140	2510.26270	-2145.00464	1201.71692	
6716	67.150	2507.06030	-2146.41211	1201.27747	
6717	67.160	2502.96558	-2146.38037	1201.97131	
6718	67.170	2501.48047	-2147.61084	1202.16309	
6719	67.180	2501.37061	-2148.36060	1202.36121	
